:SAMPLES-PER-SECOND 30
:FULLY-SPECIFIED
:DEGREES
20
root  -1.97447 40.8037 0.243939 173.405 -71.1004 -176.342
RightUpLeg  2.59459 0.343419 0.878093
RightLeg  1.52064 -3.17574 -0.33233
RightFoot  -0.579455 -0.228436 2.56719
RightToes  -3.13006e-008 1.75238e-005 3.56266e-009
Spine  -9.08356 -3.00138 2.59777
Spine1  18.8982 -2.92203 -1.87805
HEad  -18.0009 2.79347 -5.59936
LeftShoulder1  4.85584 -10.2777 -29.2046
LeftArm  -2.18522 -10.1564 -50.152
LeftForeArm  100.798 -79.6207 -102.07
LeftHand  0.0104165 -5.42153 0.204834
RightShoulder  3.27207 7.73875 22.9051
RightArm  -22.1442 41.4159 39.0292
RightForeArm  29.8297 69.0337 27.4963
RightHand  -0.70487 6.63927 -7.12434
LeftUpLeg  5.41204 4.92008 5.18153
LeftLeg  4.44811 27.045 0.218669
LeftFoot  -4.10907 0.34193 -5.00489
LeftToes  4.76866e-008 1.46233e-008 1.30548e-009
21
root  -1.94358 40.8087 0.21195 173.287 -71.8349 -176.298
RightUpLeg  2.70874 0.328467 0.902238
RightLeg  1.52064 -3.93982 -0.35561
RightFoot  -0.608592 -0.231462 2.61951
RightToes  -3.13006e-008 1.75238e-005 3.56266e-009
Spine  -8.9742 -3.31025 2.0105
Spine1  18.4101 -3.27455 -1.62352
HEad  -17.4395 0.865874 -5.59756
LeftShoulder1  5.01201 -10.6235 -29.4548
LeftArm  -2.48497 -19.3252 -52.1897
LeftForeArm  72.2864 -79.3825 -80.0818
LeftHand  0.0702407 -4.96129 -0.476577
RightShoulder  3.26982 7.67613 23.0549
RightArm  -21.3131 40.7906 38.9674
RightForeArm  28.9845 68.5088 26.718
RightHand  -0.595373 6.35073 -6.21477
LeftUpLeg  5.38675 4.92129 5.25969
LeftLeg  4.34546 26.3177 0.120646
LeftFoot  -4.01705 0.354143 -5.15782
LeftToes  4.76866e-008 1.46233e-008 1.30548e-009
22
root  -1.91143 40.8156 0.189172 173.195 -72.3727 -176.302
RightUpLeg  2.86077 0.29945 0.900124
RightLeg  1.44376 -4.43273 -0.353125
RightFoot  -0.54857 -0.232923 2.64544
RightToes  -3.13006e-008 1.75238e-005 3.56266e-009
Spine  -8.52827 -3.71598 1.60413
Spine1  17.5332 -3.6368 -1.69054
HEad  -16.4232 -0.280531 -5.72766
LeftShoulder1  4.97235 -10.7256 -28.9082
LeftArm  -2.45205 -27.268 -55.1352
LeftForeArm  44.7203 -77.4156 -57.982
LeftHand  0.0348813 -3.56102 -0.204055
RightShoulder  3.38915 7.95382 23.4093
RightArm  -20.6309 40.4191 38.8434
RightForeArm  27.8844 67.6415 25.4804
RightHand  -0.581441 6.43859 -6.03358
LeftUpLeg  5.42539 4.88766 5.29237
LeftLeg  4.20044 25.8415 0.05299
LeftFoot  -3.91268 0.369945 -5.33201
LeftToes  4.76866e-008 1.46233e-008 1.30548e-009
23
root  -1.91175 40.8223 0.176442 173.252 -72.4959 -176.346
RightUpLeg  2.93277 0.2884 0.894196
RightLeg  1.29421 -4.52456 -0.33945
RightFoot  -0.491636 -0.227521 2.56259
RightToes  -3.13006e-008 1.75238e-005 3.56266e-009
Spine  -8.6879 -4.00587 0.936564
Spine1  17.452 -4.05328 -1.15804
HEad  -15.7228 -0.903215 -6.25432
LeftShoulder1  4.8433 -10.6925 -28.0581
LeftArm  -2.70036 -33.4959 -58.5441
LeftForeArm  27.7557 -73.9336 -41.2517
LeftHand  -0.00406132 -2.86849 0.274566
RightShoulder  3.41495 8.19632 22.9885
RightArm  -20.1952 40.2432 39.7598
RightForeArm  26.9884 66.7402 24.277
RightHand  -0.603065 6.5174 -6.20552
LeftUpLeg  5.49163 4.80967 5.24053
LeftLeg  3.94959 25.7842 0.000301209
LeftFoot  -3.76757 0.366386 -5.16992
LeftToes  4.76866e-008 1.46233e-008 1.30548e-009
24
root  -1.9361 40.8319 0.172151 173.375 -72.3252 -176.421
RightUpLeg  2.99863 0.28122 0.869829
RightLeg  1.09058 -4.35446 -0.303717
RightFoot  -0.418948 -0.225082 2.52327
RightToes  -3.13006e-008 1.75238e-005 3.56266e-009
Spine  -8.64704 -3.98131 0.488538
Spine1  16.984 -4.18153 -0.554791
HEad  -15.1042 -1.87673 -7.14337
LeftShoulder1  4.66681 -10.506 -27.2294
LeftArm  -2.83872 -37.6076 -62.2538
LeftForeArm  22.533 -69.8106 -30.2416
LeftHand  -0.0402181 -1.97879 0.820413
RightShoulder  3.35377 8.17224 22.4975
RightArm  -20.6064 40.4044 41.1323
RightForeArm  27.1174 66.2027 23.5146
RightHand  -0.669962 6.56671 -6.83258
LeftUpLeg  5.65048 4.74273 5.18323
LeftLeg  3.6191 26.0553 -0.0720084
LeftFoot  -3.62114 0.380018 -5.30965
LeftToes  4.76866e-008 1.46233e-008 1.30548e-009
25
root  -1.99507 40.8388 0.166589 173.395 -71.8425 -176.369
RightUpLeg  3.07961 0.265101 0.874501
RightLeg  0.878549 -3.87445 -0.233425
RightFoot  -0.340079 -0.228544 2.57283
RightToes  -3.13006e-008 1.75238e-005 3.56266e-009
Spine  -8.68128 -3.72694 0.649321
Spine1  16.2602 -3.93831 -0.508078
HEad  -13.7515 -2.44085 -7.16434
LeftShoulder1  4.54444 -10.3772 -26.6375
LeftArm  -2.38083 -39.6477 -64.8056
LeftForeArm  22.5114 -66.6137 -24.6854
LeftHand  -0.0833101 -1.08993 1.59248
RightShoulder  3.40989 8.31634 22.6297
RightArm  -21.1119 39.6359 41.0372
RightForeArm  27.2201 66.3993 23.7698
RightHand  -0.729815 6.33911 -7.53907
LeftUpLeg  5.86961 4.73345 5.18394
LeftLeg  3.36519 26.5906 -0.11305
LeftFoot  -3.62291 0.395341 -5.53655
LeftToes  4.76866e-008 1.46233e-008 1.30548e-009
